<?xml version="1.0" standalone="no"?><!DOCTYPE svg PUBLIC "-//W3C//DTD SVG 1.1//EN" "http://www.w3.org/Graphics/SVG/1.1/DTD/svg11.dtd"><svg t="1722837568826" class="icon" viewBox="0 0 1024 1024" version="1.1" xmlns="http://www.w3.org/2000/svg" p-id="10375" xmlns:xlink="http://www.w3.org/1999/xlink" width="200" height="200"><path d="M138.922667 706.56l329.898666 184.618667a21.333333 21.333333 0 0 0 18.944 0.981333l356.949334-155.562667a21.333333 21.333333 0 0 0 12.8-19.541333l0.256-151.381333-369.749334 161.109333a21.333333 21.333333 0 0 1-18.944-0.938667l-340.821333-190.72L128 687.957333a21.333333 21.333333 0 0 0 10.922667 18.645334z" fill="#454545" p-id="10376"></path><path d="M498.346667 116.266667L141.397333 271.786667a21.333333 21.333333 0 0 0-12.8 19.498666l-0.298666 158.08 138.368 77.44 0.298666-158.08a21.333333 21.333333 0 0 1 12.8-19.541333L646.4 189.44l-129.152-72.234667a21.333333 21.333333 0 0 0-18.944-0.938666z" fill="#474747" p-id="10377"></path><path d="M344.149333 412.501333l1.109334 159.914667 125.610666 68.864a21.333333 21.333333 0 0 0 18.944 0.768l368.341334-164.352-1.109334-161.28a21.333333 21.333333 0 0 0-11.093333-18.602667l-123.904-67.925333-365.226667 162.986667a21.333333 21.333333 0 0 0-12.672 19.626666z" fill="#474747" p-id="10378"></path></svg>